<?xml version="1.0" standalone="no"?>
<svg viewBox="0 0 200 200" xmlns="http://www.w3.org/2000/svg">
  <path fill="#5EA9BE" d="M43.8,-74.7C57.5,-68,69.7,-57.7,78.3,-44.6C86.9,-31.6,91.8,-15.8,91.2,-0.4C90.5,15,84.4,30.1,75.8,43.2C67.3,56.4,56.4,67.6,43.4,75.3C30.3,82.9,15.2,87.1,-0.4,87.7C-15.9,88.4,-31.9,85.6,-45.9,78.5C-59.9,71.4,-71.9,59.9,-80.3,46.1C-88.6,32.3,-93.2,16.2,-93.4,-0.1C-93.5,-16.3,-89.1,-32.6,-80.5,-46C-71.9,-59.4,-59.1,-69.8,-45,-76.4C-30.9,-82.9,-15.5,-85.4,-0.2,-85.1C15.1,-84.7,30.1,-81.5,43.8,-74.7Z" transform="translate(100 100)" />
</svg>
