<?xml version="1.0" standalone="no"?>
<svg viewBox="0 0 200 200" xmlns="http://www.w3.org/2000/svg">
  <path fill="#5EA9BE" d="M43.1,-74.3C56.6,-67,68.8,-56.8,76.6,-44C84.4,-31.1,87.9,-15.6,87.5,-0.2C87.2,15.2,83.1,30.4,75.9,44.3C68.7,58.2,58.5,70.9,45.3,78.5C32.2,86,16.1,88.5,0.5,87.6C-15,86.7,-30.1,82.4,-43.8,75.2C-57.6,68,-70.1,57.8,-78.5,44.8C-86.8,31.8,-91,15.9,-91.5,-0.3C-92,-16.5,-88.9,-33,-81.4,-47.5C-73.9,-61.9,-61.9,-74.2,-47.6,-81.2C-33.3,-88.1,-16.7,-89.5,-0.9,-87.9C14.8,-86.4,29.7,-81.7,43.1,-74.3Z" transform="translate(100 100)" />
</svg>
