<?xml version="1.0" standalone="no"?>
<svg viewBox="0 0 200 200" xmlns="http://www.w3.org/2000/svg">
  <path fill="#5EA9BE" d="M43.6,-76.2C56.4,-68.1,66.7,-56.2,73.7,-42.9C80.8,-29.6,84.6,-14.8,84.7,0C84.7,14.9,81.1,29.8,73.7,42.5C66.3,55.2,55.1,65.6,42.2,74C29.3,82.4,14.6,88.8,-0.5,89.7C-15.7,90.6,-31.4,86.1,-44.9,78.1C-58.4,70,-69.6,58.3,-76.4,44.7C-83.1,31.1,-85.4,15.6,-85.8,-0.2C-86.2,-16,-84.6,-32,-78,-45.9C-71.5,-59.8,-59.9,-71.7,-46,-79.2C-32.2,-86.8,-16.1,-89.9,-0.4,-89.3C15.4,-88.6,30.7,-84.3,43.6,-76.2Z" transform="translate(100 100)" />
</svg>
